<svg width="157" height="175" viewBox="0 0 157 175" fill="none" xmlns="http://www.w3.org/2000/svg">
<g clip-path="url(#clip0_492_612)">
<path d="M17 61.9272C17 27.979 44.583 0.47921 78.6144 0.500012C112.5 0.520813 140 28.1038 140 62.0728C139.979 96.0003 112.417 123.521 78.4688 123.5C44.4789 123.5 17 95.9587 17 61.9272ZM25.2582 61.948C25.2166 91.1535 49.0969 115.159 78.2192 115.221C107.612 115.283 131.679 91.4863 131.721 62.3016C131.783 32.7633 107.924 8.75826 78.5104 8.75826C49.2217 8.75826 25.2998 32.6385 25.2582 61.948Z" fill="white"/>
<path d="M78.4897 73.5552C78.2816 74.0545 78.136 74.3665 78.032 74.6785C74.995 82.7495 71.9579 90.8206 68.9001 98.8916C68.0888 101.055 66.2791 102.241 63.9909 102.178C61.9108 102.116 60.1842 100.868 59.4978 98.9124C59.0817 97.7059 59.2481 96.541 59.6226 95.3553C61.5363 89.5309 63.5749 83.748 65.2598 77.8611C67.5688 69.8317 68.5257 61.5735 68.5257 53.2112C68.5257 51.4639 68.1304 50.9646 66.4039 50.5694C59.8514 49.0925 53.2989 47.6156 46.7464 46.1387C44.5206 45.6394 43.0853 44.1001 42.9189 42.1656C42.6901 39.2533 45.1862 37.09 48.2857 37.5268C50.1994 37.7972 52.1132 38.1509 54.0269 38.4213C60.8499 39.3989 67.6104 40.7927 74.5165 41.0839C80.8402 41.3751 87.1223 40.8967 93.3628 39.8982C98.4176 39.0869 103.493 38.2965 108.548 37.506C111.169 37.09 113.436 38.5669 113.936 40.9383C114.414 43.3097 112.875 45.4938 110.233 46.0971C103.68 47.5948 97.1279 49.0509 90.5754 50.5278C88.7865 50.923 88.412 51.4015 88.412 53.232C88.3496 65.6922 91.0122 77.6323 95.1934 89.302C95.9214 91.3614 96.6287 93.4208 97.3567 95.4801C98.3344 98.2675 97.1695 100.909 94.5693 101.866C91.9067 102.865 89.0777 101.575 88.0584 98.85C85.0006 90.7789 81.9635 82.7079 78.9265 74.6369C78.8433 74.3457 78.6977 74.0545 78.4897 73.5552Z" fill="white"/>
<path d="M78.4688 21.8009C83.2324 21.7801 87.0807 25.566 87.1223 30.3295C87.1847 35.1139 83.3156 39.0246 78.5312 39.0662C73.7676 39.087 69.8569 35.1763 69.8569 30.4127C69.8777 25.6492 73.7052 21.8425 78.4688 21.8009Z" fill="white"/>
</g>
<path d="M6.46896 162.5L1.70028 139.792H6.04724L8.51268 152.573C8.57756 152.919 8.63163 153.228 8.67488 153.498C8.71813 153.768 8.75598 154.066 8.78842 154.39C8.83167 154.087 8.88574 153.79 8.95062 153.498C9.0155 153.195 9.09119 152.887 9.1777 152.573L12.4055 139.792H16.0063L19.2503 152.557C19.3368 152.86 19.4071 153.157 19.4612 153.449C19.5152 153.741 19.5639 154.039 19.6072 154.341C19.6504 154.049 19.6937 153.768 19.7369 153.498C19.791 153.217 19.8451 152.93 19.8991 152.638L22.4781 139.792H26.8088L21.8942 162.5H18.0825L14.4816 148.875C14.4059 148.616 14.3411 148.367 14.287 148.129C14.2437 147.891 14.2005 147.615 14.1572 147.302C14.1032 147.626 14.0491 147.902 13.995 148.129C13.9518 148.356 13.8977 148.599 13.8328 148.859L10.3131 162.5H6.46896ZM38.7022 162.857C36.9396 162.857 35.4473 162.516 34.2254 161.835C33.0143 161.154 32.0357 160.251 31.2896 159.126C30.5543 157.991 30.019 156.731 29.6838 155.347C29.3486 153.963 29.181 152.563 29.181 151.146C29.181 149.805 29.3486 148.448 29.6838 147.075C30.0299 145.691 30.5759 144.42 31.3221 143.263C32.079 142.095 33.063 141.16 34.2741 140.457C35.4852 139.754 36.9612 139.403 38.7022 139.403C40.1403 139.403 41.3893 139.646 42.449 140.133C43.5087 140.608 44.3846 141.23 45.0766 141.998C45.7795 142.755 46.3147 143.55 46.6824 144.382L42.9194 146.134C42.5517 145.572 42.1732 145.091 41.784 144.69C41.3947 144.28 40.9513 143.966 40.4539 143.75C39.9673 143.523 39.3834 143.409 38.7022 143.409C37.729 143.409 36.9125 143.647 36.2529 144.123C35.5933 144.588 35.0635 145.204 34.6634 145.972C34.2633 146.74 33.9767 147.578 33.8037 148.486C33.6307 149.394 33.5442 150.281 33.5442 151.146C33.5442 152.065 33.6415 152.979 33.8362 153.887C34.0308 154.795 34.339 155.623 34.7607 156.369C35.1824 157.115 35.7177 157.715 36.3665 158.169C37.0153 158.613 37.7938 158.834 38.7022 158.834C39.6754 158.834 40.4918 158.564 41.1514 158.023C41.8218 157.472 42.4165 156.769 42.9356 155.915L46.7797 157.358C46.2931 158.407 45.6822 159.348 44.9469 160.181C44.2115 161.013 43.3303 161.667 42.303 162.143C41.2757 162.619 40.0754 162.857 38.7022 162.857ZM48.5809 162.5L57.2262 139.792H61.2163L69.894 162.5H65.3686L63.5682 157.699H54.8905L53.1225 162.5H48.5809ZM56.253 153.855H62.1733L59.9025 147.772C59.8268 147.588 59.7457 147.383 59.6592 147.156C59.5726 146.929 59.4915 146.702 59.4159 146.475C59.3402 146.237 59.2753 146.031 59.2212 145.858C59.1671 146.031 59.1023 146.237 59.0266 146.475C58.9509 146.702 58.8698 146.929 58.7833 147.156C58.6968 147.383 58.6157 147.588 58.54 147.772L56.253 153.855ZM81.3042 162.889C79.5633 162.889 78.0656 162.565 76.8113 161.916C75.557 161.256 74.5351 160.37 73.7457 159.256C72.9563 158.131 72.367 156.872 71.9777 155.477C71.5993 154.071 71.41 152.627 71.41 151.146C71.41 149.729 71.6047 148.329 71.994 146.945C72.3941 145.561 72.9942 144.301 73.7944 143.166C74.6054 142.03 75.6326 141.122 76.8762 140.441C78.1197 139.749 79.5957 139.403 81.3042 139.403C82.7532 139.403 83.9751 139.63 84.97 140.084C85.9756 140.538 86.819 141.133 87.5003 141.868C88.1923 142.593 88.7925 143.36 89.3007 144.171L85.6025 146.28C85.1051 145.512 84.5158 144.842 83.8346 144.269C83.1641 143.696 82.3207 143.409 81.3042 143.409C80.2445 143.409 79.3578 143.647 78.6442 144.123C77.9413 144.599 77.379 145.22 76.9573 145.988C76.5356 146.756 76.2328 147.594 76.049 148.502C75.8651 149.4 75.7732 150.281 75.7732 151.146C75.7732 152.13 75.8759 153.082 76.0814 154.001C76.2869 154.92 76.6113 155.747 77.0546 156.482C77.4979 157.218 78.0711 157.802 78.7739 158.234C79.4768 158.656 80.3202 158.867 81.3042 158.867C82.0504 158.867 82.7262 158.699 83.3317 158.364C83.9481 158.029 84.4347 157.58 84.7915 157.018C85.1484 156.445 85.3268 155.801 85.3268 155.087V154.666H81.4664V150.692H89.6575V153.968C89.6575 155.893 89.2845 157.52 88.5384 158.851C87.8031 160.17 86.8028 161.175 85.5377 161.867C84.2833 162.549 82.8722 162.889 81.3042 162.889ZM101.065 162.889C99.4752 162.889 98.1019 162.532 96.9449 161.819C95.7987 161.105 94.912 160.099 94.2848 158.802C93.6684 157.493 93.3603 155.958 93.3603 154.195C93.3603 152.411 93.6738 150.87 94.301 149.573C94.939 148.275 95.8311 147.28 96.9773 146.588C98.1343 145.885 99.4968 145.534 101.065 145.534C102.406 145.534 103.622 145.815 104.714 146.377C105.806 146.94 106.677 147.805 107.326 148.973C107.974 150.13 108.299 151.606 108.299 153.401C108.299 153.682 108.288 154.028 108.266 154.439C108.256 154.839 108.229 155.244 108.185 155.655H97.3666C97.4099 156.412 97.5829 157.077 97.8856 157.65C98.1992 158.213 98.6264 158.65 99.167 158.964C99.7077 159.278 100.346 159.434 101.081 159.434C101.87 159.434 102.557 159.305 103.141 159.045C103.725 158.775 104.276 158.348 104.795 157.764L107.131 160.181C106.417 160.992 105.558 161.646 104.552 162.143C103.546 162.641 102.384 162.889 101.065 162.889ZM97.3828 152.492H104.374C104.32 151.768 104.157 151.146 103.887 150.627C103.617 150.097 103.238 149.692 102.752 149.41C102.265 149.129 101.676 148.989 100.984 148.989C100.032 148.989 99.2211 149.281 98.5507 149.865C97.8802 150.449 97.491 151.324 97.3828 152.492ZM112.42 162.5V145.923H116.475V147.464C117.005 146.794 117.6 146.307 118.259 146.004C118.93 145.691 119.687 145.534 120.53 145.534C121.514 145.534 122.358 145.734 123.061 146.134C123.763 146.534 124.31 147.118 124.699 147.886C125.25 147.129 125.959 146.55 126.824 146.15C127.689 145.739 128.667 145.534 129.759 145.534C131.792 145.534 133.328 146.08 134.366 147.172C135.404 148.264 135.923 149.886 135.923 152.038V162.5H131.884V153.433C131.884 152.049 131.657 151.032 131.203 150.384C130.749 149.724 130.046 149.394 129.094 149.394C128.446 149.394 127.905 149.54 127.472 149.832C127.051 150.124 126.732 150.567 126.515 151.162C126.299 151.746 126.191 152.487 126.191 153.384V162.5H122.152V153.433C122.152 152.038 121.931 151.016 121.487 150.367C121.044 149.719 120.341 149.394 119.379 149.394C118.395 149.394 117.665 149.713 117.189 150.351C116.713 150.989 116.475 151.979 116.475 153.319V162.5H112.42ZM142.66 168.793L145.174 162.208L138.962 145.923H143.13L146.747 155.623C146.844 155.85 146.936 156.099 147.023 156.369C147.109 156.639 147.19 156.91 147.266 157.18C147.331 156.91 147.407 156.645 147.493 156.385C147.591 156.115 147.688 155.861 147.785 155.623L151.402 145.923H155.571L146.844 168.793H142.66Z" fill="white"/>
<defs>
<clipPath id="clip0_492_612">
<rect width="123" height="123" fill="white" transform="translate(17 0.5)"/>
</clipPath>
</defs>
</svg>
